<svg xmlns="http://www.w3.org/2000/svg" viewBox="0 0 800 520" width="800" height="520" font-family="system-ui, -apple-system, sans-serif"><title>Фасад проекта «Ольха»</title><rect width="800" height="520" fill="#f6f4ef"/><line x1="20" y1="410" x2="780" y2="410" stroke="#2b2f36" stroke-width="3"/><rect x="230" y="390" width="480" height="20" fill="#cfc8bb" stroke="#2b2f36" stroke-width="2"/><rect x="230" y="274" width="480" height="116" fill="#fbfaf7" stroke="#2b2f36" stroke-width="3"/><line x1="230" y1="286" x2="710" y2="286" stroke="#dcd7cd" stroke-width="1"/><line x1="230" y1="298" x2="710" y2="298" stroke="#dcd7cd" stroke-width="1"/><line x1="230" y1="310" x2="710" y2="310" stroke="#dcd7cd" stroke-width="1"/><line x1="230" y1="322" x2="710" y2="322" stroke="#dcd7cd" stroke-width="1"/><line x1="230" y1="334" x2="710" y2="334" stroke="#dcd7cd" stroke-width="1"/><line x1="230" y1="346" x2="710" y2="346" stroke="#dcd7cd" stroke-width="1"/><line x1="230" y1="358" x2="710" y2="358" stroke="#dcd7cd" stroke-width="1"/><line x1="230" y1="370" x2="710" y2="370" stroke="#dcd7cd" stroke-width="1"/><line x1="230" y1="382" x2="710" y2="382" stroke="#dcd7cd" stroke-width="1"/><polygon points="198,274 470,178 742,274" fill="#5b616b" stroke="#2b2f36" stroke-width="3"/><rect x="260" y="298" width="60" height="56" fill="#dfe6ea" stroke="#2b2f36" stroke-width="3"/><line x1="290" y1="298" x2="290" y2="354" stroke="#2b2f36" stroke-width="2"/><rect x="380" y="298" width="60" height="56" fill="#f3c77a" stroke="#2b2f36" stroke-width="3"/><line x1="410" y1="298" x2="410" y2="354" stroke="#2b2f36" stroke-width="2"/><rect x="510" y="298" width="40" height="92" fill="#b4552d" stroke="#2b2f36" stroke-width="3"/><rect x="620" y="298" width="60" height="56" fill="#dfe6ea" stroke="#2b2f36" stroke-width="3"/><line x1="650" y1="298" x2="650" y2="354" stroke="#2b2f36" stroke-width="2"/><g stroke="#2b2f36" stroke-width="1.5"><line x1="230" y1="465" x2="710" y2="465"/><line x1="230" y1="455" x2="230" y2="475"/><line x1="710" y1="455" x2="710" y2="475"/></g><text x="470" y="503" text-anchor="middle" font-size="30" font-weight="600" fill="#2b2f36">12,0 м</text><g stroke="#2b2f36" stroke-width="1.5"><line x1="130" y1="178" x2="130" y2="410"/><line x1="120" y1="178" x2="140" y2="178"/><line x1="120" y1="410" x2="140" y2="410"/></g><text x="118" y="294" text-anchor="end" dominant-baseline="middle" font-size="30" font-weight="600" fill="#2b2f36">5,8 м</text></svg>